<?xml version="1.0" standalone="no"?>
<!DOCTYPE svg PUBLIC "-//W3C//DTD SVG 20010904//EN"
 "http://www.w3.org/TR/2001/REC-SVG-20010904/DTD/svg10.dtd">
<svg version="1.0" xmlns="http://www.w3.org/2000/svg"
 width="1500.000000pt" height="1500.000000pt" viewBox="0 0 1500.000000 1500.000000"
 preserveAspectRatio="xMidYMid meet">
<metadata>
Created by potrace 1.14, written by Peter Selinger 2001-2017
</metadata>
<g transform="translate(0.000000,1500.000000) scale(0.100000,-0.100000)"
fill="#000000" stroke="none">
<path d="M7569 13816 c-2 -2 -56 -6 -119 -10 -164 -9 -285 -19 -380 -32 -37
-5 -65 -9 -145 -19 -27 -3 -72 -10 -100 -15 -27 -5 -68 -12 -90 -15 -22 -3
-85 -15 -140 -26 -55 -11 -111 -23 -124 -25 -30 -6 -151 -33 -171 -38 -8 -2
-61 -16 -116 -30 -579 -147 -1253 -435 -1753 -747 -51 -33 -97 -59 -102 -59
-5 0 -9 -4 -9 -10 0 -5 -4 -10 -9 -10 -12 0 -275 -180 -386 -264 -91 -68 -327
-256 -335 -266 -3 -4 -43 -40 -90 -80 -121 -106 -417 -395 -485 -474 -5 -6
-30 -34 -55 -62 -268 -298 -511 -625 -733 -985 -123 -199 -326 -589 -402 -769
-15 -36 -36 -85 -48 -110 -51 -113 -172 -448 -227 -630 -103 -337 -207 -823
-235 -1095 -4 -33 -8 -67 -10 -75 -3 -8 -7 -49 -11 -90 -3 -41 -7 -91 -9 -110
-27 -275 -27 -990 -1 -1150 3 -14 7 -61 11 -105 3 -44 10 -111 16 -150 5 -38
12 -86 14 -105 2 -19 7 -53 11 -75 3 -22 8 -53 10 -70 3 -16 7 -37 9 -45 2 -8
7 -35 10 -60 16 -123 116 -547 166 -709 48 -153 110 -340 129 -391 12 -30 30
-78 39 -105 18 -50 76 -191 112 -271 216 -489 433 -866 743 -1289 44 -60 98
-132 120 -160 52 -65 178 -217 191 -231 6 -6 33 -37 60 -69 141 -163 386 -409
565 -565 47 -41 87 -77 90 -80 3 -3 30 -26 60 -51 375 -313 792 -589 1225
-809 200 -102 431 -209 485 -225 14 -4 30 -11 35 -15 6 -5 35 -17 65 -28 295
-107 371 -132 580 -196 92 -27 371 -97 460 -115 30 -6 69 -13 85 -17 42 -8
293 -51 335 -57 32 -5 83 -12 165 -22 17 -2 64 -7 105 -10 41 -4 86 -8 99 -11
168 -26 953 -25 1156 1 17 2 59 7 95 10 226 22 488 65 760 124 265 58 707 192
940 286 531 214 922 424 1390 746 29 20 126 92 299 224 229 173 661 582 861
815 12 14 34 39 49 55 39 44 263 324 291 365 13 19 27 37 30 40 3 3 22 28 41
55 18 28 37 52 40 55 27 24 303 466 398 640 90 164 271 542 271 566 0 8 5 14
10 14 6 0 9 3 8 8 -1 4 4 21 11 37 153 374 265 723 345 1082 19 87 38 174 41
193 3 19 10 53 15 75 5 22 12 63 16 90 3 28 8 59 10 70 6 30 13 75 19 120 3
22 7 54 10 70 8 51 24 207 30 290 3 33 8 105 12 160 15 203 7 865 -12 986 -2
13 -6 58 -9 99 -7 89 -30 268 -52 400 -8 52 -17 106 -19 120 -21 127 -84 400
-140 605 -33 120 -118 392 -135 430 -5 11 -19 49 -31 85 -12 36 -26 69 -31 75
-4 5 -8 15 -8 22 0 39 -230 539 -351 763 -258 479 -611 969 -987 1369 -160
171 -347 352 -477 462 -22 19 -44 39 -50 45 -18 18 -127 108 -245 200 -552
431 -1213 792 -1860 1015 -150 52 -380 124 -460 144 -8 2 -42 11 -75 19 -150
38 -350 82 -415 92 -19 3 -42 7 -50 9 -8 3 -33 7 -55 10 -22 3 -62 10 -90 15
-27 5 -72 12 -100 15 -27 3 -61 8 -75 10 -35 5 -105 13 -170 19 -30 3 -82 8
-115 12 -33 3 -89 8 -125 11 -78 6 -716 14 -721 9z"/>
</g>
</svg>
